<svg width="168" height="168" viewBox="0 0 168 168" fill="none" xmlns="http://www.w3.org/2000/svg">
<g filter="url(#filter0_i_181_421)">
<path d="M168 39.6947V128.248C168.005 133.466 166.982 138.634 164.988 143.457C162.994 148.28 160.07 152.663 156.382 156.354C152.693 160.046 148.314 162.975 143.493 164.973C138.672 166.972 133.505 168 128.286 168H39.7332C29.2002 167.995 19.0998 163.81 11.65 156.364C4.20028 148.917 0.0102189 138.819 1.8678e-05 128.286V39.7332C-0.0050427 34.5156 1.0186 29.3481 3.01238 24.5265C5.00617 19.7048 7.93098 15.3235 11.6195 11.6331C15.3081 7.94279 19.688 5.01586 24.5087 3.01974C29.3294 1.02361 34.4963 -0.00252816 39.714 4.67744e-06H128.267C133.482 -0.00252396 138.647 1.0222 143.466 3.01568C148.285 5.00916 152.665 7.93235 156.354 11.6184C160.044 15.3043 162.971 19.681 164.97 24.4983C166.968 29.3157 167.997 34.4794 168 39.6947Z" fill="#FCBC34"/>
</g>
<g style="mix-blend-mode:soft-light" opacity="0.4">
<path d="M84.3981 65.4873L79.8164 89.5698L84.3981 93.2274V65.4873Z" fill="black"/>
</g>
<g style="mix-blend-mode:soft-light" filter="url(#filter1_f_181_421)">
<path d="M49.7286 86.625H35.5839C29.704 86.625 24.9375 91.326 24.9375 97.125C24.9375 102.924 29.704 107.625 35.5839 107.625H49.7286C55.6084 107.625 60.375 102.924 60.375 97.125C60.375 91.326 55.6084 86.625 49.7286 86.625Z" fill="#C140A3"/>
</g>
<g style="mix-blend-mode:soft-light" filter="url(#filter2_f_181_421)">
<path d="M131.124 86.625H116.938C111.07 86.625 106.312 91.3218 106.312 97.1157V97.1343C106.312 102.928 111.07 107.625 116.938 107.625H131.124C136.993 107.625 141.75 102.928 141.75 97.1343V97.1157C141.75 91.3218 136.993 86.625 131.124 86.625Z" fill="#C140A3"/>
</g>
<path d="M84.7117 108.938H83.7231C70.9875 109.224 56.4297 115.881 52.6109 130.131C52.5234 130.368 52.487 130.62 52.5041 130.871C52.5213 131.123 52.5915 131.368 52.7104 131.591C52.8293 131.815 52.9942 132.011 53.1946 132.168C53.3951 132.325 53.6265 132.439 53.8743 132.503C54.1221 132.567 54.3807 132.58 54.6336 132.54C54.8865 132.5 55.1282 132.408 55.3431 132.271C55.5581 132.134 55.7416 131.954 55.882 131.743C56.0223 131.532 56.1164 131.295 56.1583 131.046C59.5118 118.628 72.4607 112.81 83.8006 112.562C94.6172 112.352 108.787 117.603 113.285 131.681C113.52 132.014 113.858 132.264 114.248 132.395C114.638 132.526 115.06 132.531 115.453 132.41C115.847 132.288 116.19 132.047 116.435 131.721C116.679 131.394 116.812 130.999 116.812 130.594C112.684 117.718 100.142 108.938 84.7117 108.938Z" fill="black"/>
<g clip-path="url(#clip0_181_421)">
<path d="M140.437 66.9895C140.437 57.5374 132.798 49.875 123.375 49.875C113.952 49.875 106.312 57.5374 106.312 66.9895V72.1355C106.312 81.5876 113.952 89.25 123.375 89.25C132.798 89.25 140.437 81.5876 140.437 72.1355V66.9895Z" fill="black"/>
<path d="M117.844 62.388C119.502 62.388 120.847 61.0435 120.847 59.3849C120.847 57.7264 119.502 56.3818 117.844 56.3818C116.185 56.3818 114.841 57.7264 114.841 59.3849C114.841 61.0435 116.185 62.388 117.844 62.388Z" fill="white"/>
<path opacity="0.1" d="M123.407 73.9574C127.266 73.9574 130.395 70.8288 130.395 66.9694C130.395 63.1101 127.266 59.9814 123.407 59.9814C119.548 59.9814 116.419 63.1101 116.419 66.9694C116.419 70.8288 119.548 73.9574 123.407 73.9574Z" fill="white"/>
<path d="M60.375 66.9895C60.375 57.5374 52.7358 49.875 43.3125 49.875C33.8891 49.875 26.25 57.5374 26.25 66.9895V72.1355C26.25 81.5876 33.8891 89.25 43.3125 89.25C52.7358 89.25 60.375 81.5876 60.375 72.1355V66.9895Z" fill="black"/>
<path d="M37.7812 62.388C39.4397 62.388 40.7843 61.0435 40.7843 59.3849C40.7843 57.7264 39.4397 56.3818 37.7812 56.3818C36.1226 56.3818 34.7781 57.7264 34.7781 59.3849C34.7781 61.0435 36.1226 62.388 37.7812 62.388Z" fill="white"/>
<path opacity="0.1" d="M43.3444 73.9574C47.2038 73.9574 50.3324 70.8288 50.3324 66.9694C50.3324 63.1101 47.2038 59.9814 43.3444 59.9814C39.4851 59.9814 36.3564 63.1101 36.3564 66.9694C36.3564 70.8288 39.4851 73.9574 43.3444 73.9574Z" fill="white"/>
</g>
<defs>
<filter id="filter0_i_181_421" x="0" y="0" width="168" height="168" filterUnits="userSpaceOnUse" color-interpolation-filters="sRGB">
<feFlood flood-opacity="0" result="BackgroundImageFix"/>
<feBlend mode="normal" in="SourceGraphic" in2="BackgroundImageFix" result="shape"/>
<feColorMatrix in="SourceAlpha" type="matrix" values="0 0 0 0 0 0 0 0 0 0 0 0 0 0 0 0 0 0 127 0" result="hardAlpha"/>
<feOffset dx="-6" dy="-6"/>
<feComposite in2="hardAlpha" operator="arithmetic" k2="-1" k3="1"/>
<feColorMatrix type="matrix" values="0 0 0 0 0 0 0 0 0 0 0 0 0 0 0 0 0 0 0.04 0"/>
<feBlend mode="normal" in2="shape" result="effect1_innerShadow_181_421"/>
</filter>
<filter id="filter1_f_181_421" x="14.9375" y="76.625" width="55.4375" height="41" filterUnits="userSpaceOnUse" color-interpolation-filters="sRGB">
<feFlood flood-opacity="0" result="BackgroundImageFix"/>
<feBlend mode="normal" in="SourceGraphic" in2="BackgroundImageFix" result="shape"/>
<feGaussianBlur stdDeviation="5" result="effect1_foregroundBlur_181_421"/>
</filter>
<filter id="filter2_f_181_421" x="96.3125" y="76.625" width="55.4375" height="41" filterUnits="userSpaceOnUse" color-interpolation-filters="sRGB">
<feFlood flood-opacity="0" result="BackgroundImageFix"/>
<feBlend mode="normal" in="SourceGraphic" in2="BackgroundImageFix" result="shape"/>
<feGaussianBlur stdDeviation="5" result="effect1_foregroundBlur_181_421"/>
</filter>
<clipPath id="clip0_181_421">
<rect width="114.791" height="39.329" fill="white" transform="translate(26.25 49.875)"/>
</clipPath>
</defs>
</svg>
