<svg width="168" height="168" viewBox="0 0 168 168" fill="none" xmlns="http://www.w3.org/2000/svg">
<g filter="url(#filter0_i_181_373)">
<path d="M168 39.6947V128.248C168.005 133.466 166.982 138.634 164.988 143.457C162.994 148.28 160.07 152.663 156.382 156.354C152.693 160.046 148.314 162.975 143.493 164.973C138.672 166.972 133.505 168 128.286 168H39.7332C29.2002 167.995 19.0998 163.81 11.65 156.364C4.20028 148.917 0.0102189 138.819 1.8678e-05 128.286V39.7332C-0.0050427 34.5156 1.0186 29.3481 3.01238 24.5265C5.00617 19.7048 7.93098 15.3235 11.6195 11.6331C15.3081 7.94279 19.688 5.01586 24.5087 3.01974C29.3294 1.02361 34.4963 -0.00252816 39.714 4.67744e-06H128.267C133.482 -0.00252396 138.647 1.0222 143.466 3.01568C148.285 5.00916 152.665 7.93235 156.354 11.6184C160.044 15.3043 162.971 19.681 164.97 24.4983C166.968 29.3157 167.997 34.4794 168 39.6947Z" fill="#FCBC34"/>
</g>
<g style="mix-blend-mode:soft-light" opacity="0.4">
<path d="M84.3981 65.4873L79.8164 89.5698L84.3981 93.2274V65.4873Z" fill="black"/>
</g>
<g style="mix-blend-mode:soft-light" opacity="0.4">
<path d="M64.3125 124.688C70.2245 129.762 97.1824 130.11 103.687 124.688H64.3125Z" fill="black"/>
</g>
<path d="M116.063 117.941H52.4012C52.112 118.036 51.8045 118.062 51.5038 118.015C51.203 117.968 50.9177 117.85 50.6712 117.672C50.4247 117.493 50.224 117.259 50.0856 116.988C49.9472 116.717 49.875 116.417 49.875 116.113C49.875 115.808 49.9472 115.508 50.0856 115.237C50.224 114.966 50.4247 114.732 50.6712 114.553C50.9177 114.375 51.203 114.257 51.5038 114.21C51.8045 114.164 52.112 114.189 52.4012 114.284H116.063C116.352 114.189 116.66 114.164 116.96 114.21C117.261 114.257 117.546 114.375 117.793 114.553C118.039 114.732 118.24 114.966 118.378 115.237C118.517 115.508 118.589 115.808 118.589 116.113C118.589 116.417 118.517 116.717 118.378 116.988C118.24 117.259 118.039 117.493 117.793 117.672C117.546 117.85 117.261 117.968 116.96 118.015C116.66 118.062 116.352 118.036 116.063 117.941Z" fill="black"/>
<g clip-path="url(#clip0_181_373)">
<path d="M140.437 66.9895C140.437 57.5374 132.798 49.875 123.375 49.875C113.952 49.875 106.312 57.5374 106.312 66.9895V72.1355C106.312 81.5876 113.952 89.25 123.375 89.25C132.798 89.25 140.437 81.5876 140.437 72.1355V66.9895Z" fill="black"/>
<path d="M117.843 62.388C119.502 62.388 120.847 61.0435 120.847 59.3849C120.847 57.7264 119.502 56.3818 117.843 56.3818C116.185 56.3818 114.84 57.7264 114.84 59.3849C114.84 61.0435 116.185 62.388 117.843 62.388Z" fill="white"/>
<path opacity="0.1" d="M123.407 73.9574C127.266 73.9574 130.395 70.8288 130.395 66.9694C130.395 63.1101 127.266 59.9814 123.407 59.9814C119.548 59.9814 116.419 63.1101 116.419 66.9694C116.419 70.8288 119.548 73.9574 123.407 73.9574Z" fill="white"/>
<path d="M60.375 66.9895C60.375 57.5374 52.7358 49.875 43.3125 49.875C33.8891 49.875 26.25 57.5374 26.25 66.9895V72.1355C26.25 81.5876 33.8891 89.25 43.3125 89.25C52.7358 89.25 60.375 81.5876 60.375 72.1355V66.9895Z" fill="black"/>
<path d="M37.7809 62.388C39.4395 62.388 40.784 61.0435 40.784 59.3849C40.784 57.7264 39.4395 56.3818 37.7809 56.3818C36.1224 56.3818 34.7778 57.7264 34.7778 59.3849C34.7778 61.0435 36.1224 62.388 37.7809 62.388Z" fill="white"/>
<path opacity="0.1" d="M43.3444 73.9574C47.2038 73.9574 50.3324 70.8288 50.3324 66.9694C50.3324 63.1101 47.2038 59.9814 43.3444 59.9814C39.4851 59.9814 36.3564 63.1101 36.3564 66.9694C36.3564 70.8288 39.4851 73.9574 43.3444 73.9574Z" fill="white"/>
</g>
<defs>
<filter id="filter0_i_181_373" x="0" y="0" width="168" height="168" filterUnits="userSpaceOnUse" color-interpolation-filters="sRGB">
<feFlood flood-opacity="0" result="BackgroundImageFix"/>
<feBlend mode="normal" in="SourceGraphic" in2="BackgroundImageFix" result="shape"/>
<feColorMatrix in="SourceAlpha" type="matrix" values="0 0 0 0 0 0 0 0 0 0 0 0 0 0 0 0 0 0 127 0" result="hardAlpha"/>
<feOffset dx="-6" dy="-6"/>
<feComposite in2="hardAlpha" operator="arithmetic" k2="-1" k3="1"/>
<feColorMatrix type="matrix" values="0 0 0 0 0 0 0 0 0 0 0 0 0 0 0 0 0 0 0.04 0"/>
<feBlend mode="normal" in2="shape" result="effect1_innerShadow_181_373"/>
</filter>
<clipPath id="clip0_181_373">
<rect width="114.791" height="39.329" fill="white" transform="translate(26.25 49.875)"/>
</clipPath>
</defs>
</svg>
