<svg width="168" height="168" viewBox="0 0 168 168" fill="none" xmlns="http://www.w3.org/2000/svg">
<g filter="url(#filter0_i_181_433)">
<path d="M168 39.6947V128.248C168.005 133.466 166.982 138.634 164.988 143.457C162.994 148.28 160.07 152.663 156.382 156.354C152.693 160.046 148.314 162.975 143.493 164.973C138.672 166.972 133.505 168 128.286 168H39.7332C29.2002 167.995 19.0998 163.81 11.65 156.364C4.20028 148.917 0.0102189 138.819 1.8678e-05 128.286V39.7332C-0.0050427 34.5156 1.0186 29.3481 3.01238 24.5265C5.00617 19.7048 7.93098 15.3235 11.6195 11.6331C15.3081 7.94279 19.688 5.01586 24.5087 3.01974C29.3294 1.02361 34.4963 -0.00252816 39.714 4.67744e-06H128.267C133.482 -0.00252396 138.647 1.0222 143.466 3.01568C148.285 5.00916 152.665 7.93235 156.354 11.6184C160.044 15.3043 162.971 19.681 164.97 24.4983C166.968 29.3157 167.997 34.4794 168 39.6947Z" fill="#FCBC34"/>
</g>
<g style="mix-blend-mode:soft-light" opacity="0.4">
<path d="M84.3981 65.4873L79.8164 89.5698L84.3981 93.2274V65.4873Z" fill="black"/>
</g>
<g style="mix-blend-mode:soft-light" filter="url(#filter1_f_181_433)">
<path d="M49.7286 86.625H35.5839C29.704 86.625 24.9375 91.326 24.9375 97.125C24.9375 102.924 29.704 107.625 35.5839 107.625H49.7286C55.6084 107.625 60.375 102.924 60.375 97.125C60.375 91.326 55.6084 86.625 49.7286 86.625Z" fill="#C140A3"/>
</g>
<g style="mix-blend-mode:soft-light" filter="url(#filter2_f_181_433)">
<path d="M131.124 86.625H116.938C111.07 86.625 106.312 91.3218 106.312 97.1157V97.1343C106.312 102.928 111.07 107.625 116.938 107.625H131.124C136.993 107.625 141.75 102.928 141.75 97.1343V97.1157C141.75 91.3218 136.993 86.625 131.124 86.625Z" fill="#C140A3"/>
</g>
<path fill-rule="evenodd" clip-rule="evenodd" d="M36.75 94.5C36.75 152.25 131.25 152.25 131.25 94.5C99.3658 106.139 67.8658 106.486 36.75 94.5Z" fill="white"/>
<path fill-rule="evenodd" clip-rule="evenodd" d="M45.9375 120.75C64.7709 141.486 102.833 141.753 122.062 121.514C96.9272 126.559 70.9587 126.299 45.9375 120.75Z" fill="#DDDBDB"/>
<path d="M84.0479 139.116C72.019 139.334 60.2775 135.418 50.772 128.017C40.7854 119.919 35.4375 108.339 35.4375 94.5854C35.4397 94.3624 35.4947 94.1432 35.598 93.9459C35.7013 93.7485 35.85 93.5787 36.0317 93.4504C36.216 93.3275 36.4264 93.2496 36.6461 93.2229C36.8657 93.1962 37.0886 93.2214 37.2968 93.2965C67.3716 104.838 98.7882 104.838 130.646 93.2965C130.856 93.2072 131.086 93.1719 131.314 93.1938C131.542 93.2157 131.76 93.2941 131.951 93.4219C132.141 93.5497 132.296 93.723 132.403 93.9261C132.51 94.1292 132.565 94.3557 132.562 94.5854C132.562 108.339 127.291 119.919 117.228 128.017C107.745 135.392 96.0431 139.306 84.0479 139.116ZM38.2936 96.5859C39.367 123.901 62.5029 136.385 84.0479 136.385C105.593 136.385 128.825 123.901 129.802 96.5474C98.5965 107.454 67.8316 107.473 38.2936 96.5859Z" fill="black"/>
<g style="mix-blend-mode:soft-light" opacity="0.4">
<path d="M64.3125 140.438C70.2216 147.211 97.1664 147.66 103.687 140.438C90.7182 143.356 77.2818 143.356 64.3125 140.438Z" fill="black"/>
</g>
<g clip-path="url(#clip0_181_433)">
<path d="M108.544 74.8125C108.319 74.8101 108.096 74.7711 107.884 74.6971C107.604 74.6094 107.343 74.4661 107.118 74.2754C106.892 74.0847 106.706 73.8504 106.569 73.5859C106.432 73.3215 106.348 73.0321 106.322 72.7344C106.295 72.4367 106.326 72.1366 106.414 71.8513C107.481 68.1205 109.719 64.8497 112.783 62.5401C115.847 60.2305 119.569 59.0095 123.378 59.0643C127.183 59.0286 130.896 60.2569 133.957 62.5637C137.017 64.8705 139.258 68.1304 140.343 71.8513C140.513 72.4301 140.452 73.0542 140.173 73.5874C139.894 74.1206 139.42 74.5195 138.853 74.6971C138.574 74.789 138.279 74.8229 137.986 74.7969C137.694 74.771 137.409 74.6856 137.149 74.5459C136.889 74.4062 136.66 74.2149 136.473 73.9833C136.287 73.7518 136.148 73.4845 136.064 73.1973C135.246 70.3999 133.56 67.9494 131.258 66.2153C128.956 64.4811 126.164 63.5573 123.303 63.583C120.454 63.5739 117.679 64.5055 115.393 66.2384C113.106 67.9714 111.431 70.4126 110.617 73.1973C110.477 73.652 110.203 74.0514 109.832 74.3406C109.46 74.6298 109.011 74.7946 108.544 74.8125Z" fill="black"/>
<path d="M28.4978 74.8124C28.273 74.8144 28.0496 74.7754 27.8383 74.6971C27.5565 74.6113 27.2942 74.4695 27.0666 74.2796C26.8389 74.0898 26.6504 73.8558 26.512 73.5911C26.3735 73.3264 26.2879 73.0364 26.26 72.7377C26.2321 72.4391 26.2626 72.1377 26.3496 71.8512C27.4224 68.1236 29.6604 64.8564 32.7224 62.5477C35.7844 60.239 39.5023 59.0155 43.3092 59.0639C47.1146 59.0219 50.8296 60.2478 53.8904 62.5556C56.9511 64.8633 59.1906 68.1269 60.2689 71.8512C60.3589 72.1364 60.3921 72.4371 60.3667 72.7357C60.3413 73.0342 60.2576 73.3245 60.1207 73.5896C59.9838 73.8547 59.7963 74.0893 59.5694 74.2794C59.3424 74.4696 59.0805 74.6116 58.7991 74.6971C58.2318 74.8777 57.6175 74.8212 57.091 74.54C56.5646 74.2587 56.169 73.7758 55.9913 73.1972C55.175 70.4029 53.4915 67.9547 51.1942 66.2208C48.897 64.4869 46.11 63.5611 43.2527 63.5827C40.4018 63.5695 37.6234 64.4991 35.3338 66.2324C33.0441 67.9657 31.3663 70.4093 30.5518 73.1972C30.4156 73.6504 30.1448 74.0492 29.7768 74.3385C29.4089 74.6278 28.962 74.7934 28.4978 74.8124Z" fill="black"/>
</g>
<defs>
<filter id="filter0_i_181_433" x="0" y="0" width="168" height="168" filterUnits="userSpaceOnUse" color-interpolation-filters="sRGB">
<feFlood flood-opacity="0" result="BackgroundImageFix"/>
<feBlend mode="normal" in="SourceGraphic" in2="BackgroundImageFix" result="shape"/>
<feColorMatrix in="SourceAlpha" type="matrix" values="0 0 0 0 0 0 0 0 0 0 0 0 0 0 0 0 0 0 127 0" result="hardAlpha"/>
<feOffset dx="-6" dy="-6"/>
<feComposite in2="hardAlpha" operator="arithmetic" k2="-1" k3="1"/>
<feColorMatrix type="matrix" values="0 0 0 0 0 0 0 0 0 0 0 0 0 0 0 0 0 0 0.04 0"/>
<feBlend mode="normal" in2="shape" result="effect1_innerShadow_181_433"/>
</filter>
<filter id="filter1_f_181_433" x="14.9375" y="76.625" width="55.4375" height="41" filterUnits="userSpaceOnUse" color-interpolation-filters="sRGB">
<feFlood flood-opacity="0" result="BackgroundImageFix"/>
<feBlend mode="normal" in="SourceGraphic" in2="BackgroundImageFix" result="shape"/>
<feGaussianBlur stdDeviation="5" result="effect1_foregroundBlur_181_433"/>
</filter>
<filter id="filter2_f_181_433" x="96.3125" y="76.625" width="55.4375" height="41" filterUnits="userSpaceOnUse" color-interpolation-filters="sRGB">
<feFlood flood-opacity="0" result="BackgroundImageFix"/>
<feBlend mode="normal" in="SourceGraphic" in2="BackgroundImageFix" result="shape"/>
<feGaussianBlur stdDeviation="5" result="effect1_foregroundBlur_181_433"/>
</filter>
<clipPath id="clip0_181_433">
<rect width="114.791" height="39.329" fill="white" transform="translate(26.25 49.875)"/>
</clipPath>
</defs>
</svg>
