<svg width="168" height="168" viewBox="0 0 168 168" fill="none" xmlns="http://www.w3.org/2000/svg">
<g filter="url(#filter0_i_181_577)">
<path d="M168 39.6947V128.248C168.005 133.466 166.982 138.634 164.988 143.457C162.994 148.28 160.07 152.663 156.382 156.354C152.693 160.046 148.314 162.975 143.493 164.973C138.672 166.972 133.505 168 128.286 168H39.7332C29.2002 167.995 19.0998 163.81 11.65 156.364C4.20028 148.917 0.0102189 138.819 1.8678e-05 128.286V39.7332C-0.0050427 34.5156 1.0186 29.3481 3.01238 24.5265C5.00617 19.7048 7.93098 15.3235 11.6195 11.6331C15.3081 7.94279 19.688 5.01586 24.5087 3.01974C29.3294 1.02361 34.4963 -0.00252816 39.714 4.67744e-06H128.267C133.482 -0.00252396 138.647 1.0222 143.466 3.01568C148.285 5.00916 152.665 7.93235 156.354 11.6184C160.044 15.3043 162.971 19.681 164.97 24.4983C166.968 29.3157 167.997 34.4794 168 39.6947Z" fill="#FCBC34"/>
</g>
<g style="mix-blend-mode:soft-light" opacity="0.4">
<path d="M84.3981 65.4873L79.8164 89.5698L84.3981 93.2274V65.4873Z" fill="black"/>
</g>
<g style="mix-blend-mode:soft-light" filter="url(#filter1_f_181_577)">
<path d="M49.7286 86.625H35.5839C29.704 86.625 24.9375 91.326 24.9375 97.125C24.9375 102.924 29.704 107.625 35.5839 107.625H49.7286C55.6084 107.625 60.375 102.924 60.375 97.125C60.375 91.326 55.6084 86.625 49.7286 86.625Z" fill="#C140A3"/>
</g>
<g style="mix-blend-mode:soft-light" filter="url(#filter2_f_181_577)">
<path d="M131.124 86.625H116.938C111.07 86.625 106.312 91.3218 106.312 97.1157V97.1343C106.312 102.928 111.07 107.625 116.938 107.625H131.124C136.993 107.625 141.75 102.928 141.75 97.1343V97.1157C141.75 91.3218 136.993 86.625 131.124 86.625Z" fill="#C140A3"/>
</g>
<path d="M130.049 108.938C130.399 108.937 130.742 109.04 131.035 109.232C131.329 109.424 131.56 109.699 131.702 110.021C133.919 114.38 134.462 119.408 133.228 124.144C131.994 128.88 129.069 132.993 125.012 135.695C120.936 138.458 115.991 139.611 111.123 138.937C106.255 138.262 101.804 135.807 98.6202 132.039C98.4472 131.668 98.3953 131.253 98.472 130.851C98.5486 130.449 98.7498 130.082 99.0467 129.802C99.3436 129.523 99.7209 129.345 100.124 129.295C100.528 129.245 100.937 129.325 101.292 129.524C103.903 132.63 107.558 134.66 111.56 135.228C115.563 135.795 119.633 134.86 122.994 132.6C128.261 129.059 132.855 121.397 128.376 111.511C128.217 111.057 128.231 110.56 128.416 110.117C128.6 109.673 128.943 109.315 129.376 109.112C129.586 109.008 129.815 108.949 130.049 108.938Z" fill="black"/>
<path d="M127.893 83.8941H119.23C106.467 83.8941 106.467 83.9904 106.467 71.131V66.7996C106.472 62.2674 108.275 57.9223 111.48 54.7176C114.684 51.5128 119.029 49.7102 123.562 49.7051C128.094 49.7102 132.439 51.5128 135.644 54.7176C138.848 57.9223 140.651 62.2674 140.656 66.7996V71.2273C140.618 83.9904 140.618 83.8941 127.893 83.8941Z" fill="black"/>
<path d="M117.822 62.3641C119.477 62.3641 120.819 61.0221 120.819 59.3666C120.819 57.7111 119.477 56.3691 117.822 56.3691C116.166 56.3691 114.824 57.7111 114.824 59.3666C114.824 61.0221 116.166 62.3641 117.822 62.3641Z" fill="white"/>
<path opacity="0.1" d="M123.375 73.9126C127.227 73.9126 130.35 70.7899 130.35 66.9378C130.35 63.0856 127.227 59.9629 123.375 59.9629C119.523 59.9629 116.4 63.0856 116.4 66.9378C116.4 70.7899 119.523 73.9126 123.375 73.9126Z" fill="white"/>
<path d="M47.8305 83.8941H39.1677C26.4045 83.8941 26.4045 83.9904 26.4045 71.131V66.7996C26.4096 62.2674 28.2123 57.9223 31.417 54.7176C34.6218 51.5128 38.9669 49.7102 43.4991 49.7051C48.0313 49.7102 52.3764 51.5128 55.5811 54.7176C58.7858 57.9223 60.5885 62.2674 60.5936 66.7996V71.2273C60.5551 83.9904 60.5551 83.8941 47.8305 83.8941Z" fill="black"/>
<path d="M37.8966 62.388C39.5552 62.388 40.8997 61.0435 40.8997 59.3849C40.8997 57.7264 39.5552 56.3818 37.8966 56.3818C36.2381 56.3818 34.8936 57.7264 34.8936 59.3849C34.8936 61.0435 36.2381 62.388 37.8966 62.388Z" fill="white"/>
<path opacity="0.1" d="M43.4601 73.9574C47.3195 73.9574 50.4481 70.8288 50.4481 66.9694C50.4481 63.1101 47.3195 59.9814 43.4601 59.9814C39.6008 59.9814 36.4722 63.1101 36.4722 66.9694C36.4722 70.8288 39.6008 73.9574 43.4601 73.9574Z" fill="white"/>
<defs>
<filter id="filter0_i_181_577" x="0" y="0" width="168" height="168" filterUnits="userSpaceOnUse" color-interpolation-filters="sRGB">
<feFlood flood-opacity="0" result="BackgroundImageFix"/>
<feBlend mode="normal" in="SourceGraphic" in2="BackgroundImageFix" result="shape"/>
<feColorMatrix in="SourceAlpha" type="matrix" values="0 0 0 0 0 0 0 0 0 0 0 0 0 0 0 0 0 0 127 0" result="hardAlpha"/>
<feOffset dx="-6" dy="-6"/>
<feComposite in2="hardAlpha" operator="arithmetic" k2="-1" k3="1"/>
<feColorMatrix type="matrix" values="0 0 0 0 0 0 0 0 0 0 0 0 0 0 0 0 0 0 0.04 0"/>
<feBlend mode="normal" in2="shape" result="effect1_innerShadow_181_577"/>
</filter>
<filter id="filter1_f_181_577" x="14.9375" y="76.625" width="55.4375" height="41" filterUnits="userSpaceOnUse" color-interpolation-filters="sRGB">
<feFlood flood-opacity="0" result="BackgroundImageFix"/>
<feBlend mode="normal" in="SourceGraphic" in2="BackgroundImageFix" result="shape"/>
<feGaussianBlur stdDeviation="5" result="effect1_foregroundBlur_181_577"/>
</filter>
<filter id="filter2_f_181_577" x="96.3125" y="76.625" width="55.4375" height="41" filterUnits="userSpaceOnUse" color-interpolation-filters="sRGB">
<feFlood flood-opacity="0" result="BackgroundImageFix"/>
<feBlend mode="normal" in="SourceGraphic" in2="BackgroundImageFix" result="shape"/>
<feGaussianBlur stdDeviation="5" result="effect1_foregroundBlur_181_577"/>
</filter>
</defs>
</svg>
