<svg width="168" height="168" viewBox="0 0 168 168" fill="none" xmlns="http://www.w3.org/2000/svg">
<g filter="url(#filter0_i_181_553)">
<path d="M168 39.6947V128.248C168.005 133.466 166.982 138.634 164.988 143.457C162.994 148.28 160.07 152.663 156.382 156.354C152.693 160.046 148.314 162.975 143.493 164.973C138.672 166.972 133.505 168 128.286 168H39.7332C29.2002 167.995 19.0998 163.81 11.65 156.364C4.20028 148.917 0.0102189 138.819 1.8678e-05 128.286V39.7332C-0.0050427 34.5156 1.0186 29.3481 3.01238 24.5265C5.00617 19.7048 7.93098 15.3235 11.6195 11.6331C15.3081 7.94279 19.688 5.01586 24.5087 3.01974C29.3294 1.02361 34.4963 -0.00252816 39.714 4.67744e-06H128.267C133.482 -0.00252396 138.647 1.0222 143.466 3.01568C148.285 5.00916 152.665 7.93235 156.354 11.6184C160.044 15.3043 162.971 19.681 164.97 24.4983C166.968 29.3157 167.997 34.4794 168 39.6947Z" fill="#FCBC34"/>
</g>
<g style="mix-blend-mode:soft-light" opacity="0.4">
<path d="M84.3981 65.4873L79.8164 89.5698L84.3981 93.2274V65.4873Z" fill="black"/>
</g>
<path d="M41.518 34.7664C41.6336 37.0692 40.8346 39.3244 39.2949 41.0408C37.7553 42.7571 35.5998 43.7955 33.298 43.9297C30.9948 43.8345 28.8231 42.8314 27.2575 41.1395C25.6919 39.4477 24.8598 37.2048 24.9432 34.9012C24.9432 28.2597 30.2179 25.1219 33.0477 14.457C35.4925 24.8524 41.441 27.4127 41.518 34.7664Z" fill="#4ABCF4"/>
<path fill-rule="evenodd" clip-rule="evenodd" d="M59.0625 131.25C65.8875 103.193 103.463 103.307 110.25 131.25C97.491 121.002 70.3427 121.479 59.0625 131.25Z" fill="#2B1607"/>
<path d="M58.5113 131.958C58.3733 131.958 58.2382 131.919 58.1231 131.845C57.9812 131.761 57.8707 131.635 57.8078 131.485C57.7449 131.336 57.733 131.171 57.7738 131.014C61.0347 118.032 71.6133 109.729 84.6958 109.729C97.7978 109.729 108.338 118.145 111.54 131.09C111.578 131.242 111.567 131.401 111.508 131.547C111.449 131.692 111.345 131.816 111.21 131.901C111.077 131.992 110.917 132.041 110.754 132.041C110.591 132.041 110.432 131.992 110.298 131.901C97.9531 122.145 70.604 122.145 58.9578 131.901C58.818 131.963 58.6626 131.982 58.5113 131.958ZM84.4241 123.032C93.7022 123.032 103.077 125.127 109.502 129.297C107.987 124.057 104.746 119.444 100.276 116.165C95.8059 112.886 90.3535 111.122 84.7541 111.144C79.1612 111.122 73.7138 112.876 69.2399 116.139C64.766 119.402 61.5101 123.995 59.9671 129.222C65.9843 125.089 75.2042 123.032 84.4241 123.032Z" fill="black"/>
<path d="M123.375 89.25C127.9 89.25 132.24 87.4524 135.44 84.2526C138.64 81.0528 140.438 76.7129 140.438 72.1877V71.3231C140.438 57.6041 125.277 48.7271 115.593 49.9952C107.004 51.0904 106.313 56.5857 106.313 64.7518V72.1877C106.318 76.7114 108.117 81.0483 111.316 84.247C114.514 87.4457 118.851 89.2449 123.375 89.25Z" fill="black"/>
<path d="M117.895 62.5658C119.554 62.5658 120.898 61.2212 120.898 59.5627C120.898 57.9041 119.554 56.5596 117.895 56.5596C116.237 56.5596 114.892 57.9041 114.892 59.5627C114.892 61.2212 116.237 62.5658 117.895 62.5658Z" fill="white"/>
<path opacity="0.1" d="M123.459 74.1361C127.318 74.1361 130.447 71.0075 130.447 67.1481C130.447 63.2888 127.318 60.1602 123.459 60.1602C119.599 60.1602 116.471 63.2888 116.471 67.1481C116.471 71.0075 119.599 74.1361 123.459 74.1361Z" fill="white"/>
<path d="M43.3029 89.25C38.7784 89.2449 34.441 87.445 31.2435 84.2458C28.046 81.0465 26.25 76.7096 26.25 72.1877V71.3231C26.25 57.6041 41.3996 48.7271 51.0892 49.9952C59.7021 51.0904 60.375 56.5857 60.375 64.7518V72.1877C60.375 76.7129 58.5763 81.0528 55.3747 84.2526C52.1731 87.4524 47.8307 89.25 43.3029 89.25Z" fill="black"/>
<path d="M37.8517 62.5658C39.5103 62.5658 40.8548 61.2212 40.8548 59.5627C40.8548 57.9041 39.5103 56.5596 37.8517 56.5596C36.1932 56.5596 34.8486 57.9041 34.8486 59.5627C34.8486 61.2212 36.1932 62.5658 37.8517 62.5658Z" fill="white"/>
<path opacity="0.1" d="M43.4152 74.1361C47.2746 74.1361 50.4032 71.0075 50.4032 67.1481C50.4032 63.2888 47.2746 60.1602 43.4152 60.1602C39.5559 60.1602 36.4272 63.2888 36.4272 67.1481C36.4272 71.0075 39.5559 74.1361 43.4152 74.1361Z" fill="white"/>
<defs>
<filter id="filter0_i_181_553" x="0" y="0" width="168" height="168" filterUnits="userSpaceOnUse" color-interpolation-filters="sRGB">
<feFlood flood-opacity="0" result="BackgroundImageFix"/>
<feBlend mode="normal" in="SourceGraphic" in2="BackgroundImageFix" result="shape"/>
<feColorMatrix in="SourceAlpha" type="matrix" values="0 0 0 0 0 0 0 0 0 0 0 0 0 0 0 0 0 0 127 0" result="hardAlpha"/>
<feOffset dx="-6" dy="-6"/>
<feComposite in2="hardAlpha" operator="arithmetic" k2="-1" k3="1"/>
<feColorMatrix type="matrix" values="0 0 0 0 0 0 0 0 0 0 0 0 0 0 0 0 0 0 0.04 0"/>
<feBlend mode="normal" in2="shape" result="effect1_innerShadow_181_553"/>
</filter>
</defs>
</svg>
