<svg width="179" height="168" viewBox="0 0 179 168" fill="none" xmlns="http://www.w3.org/2000/svg">
<g filter="url(#filter0_i_181_541)">
<path d="M174 39.6947V128.248C174.005 133.466 172.982 138.634 170.988 143.457C168.994 148.28 166.07 152.663 162.382 156.354C158.693 160.046 154.314 162.975 149.493 164.973C144.672 166.972 139.505 168 134.286 168H45.7332C35.2002 167.995 25.0998 163.81 17.65 156.364C10.2003 148.917 6.01022 138.819 6.00002 128.286V39.7332C5.99496 34.5156 7.0186 29.3481 9.01238 24.5265C11.0062 19.7048 13.931 15.3235 17.6195 11.6331C21.3081 7.94279 25.688 5.01586 30.5087 3.01974C35.3294 1.02361 40.4963 -0.00252816 45.714 4.67744e-06H134.267C139.482 -0.00252396 144.647 1.0222 149.466 3.01568C154.285 5.00916 158.665 7.93235 162.354 11.6184C166.044 15.3043 168.971 19.681 170.97 24.4983C172.968 29.3157 173.997 34.4794 174 39.6947Z" fill="#FCBC34"/>
</g>
<g style="mix-blend-mode:soft-light" opacity="0.4">
<path d="M90.3981 65.4873L85.8164 89.5698L90.3981 93.2274V65.4873Z" fill="black"/>
</g>
<g style="mix-blend-mode:soft-light" filter="url(#filter1_f_181_541)">
<path d="M55.7286 86.625H41.5839C35.704 86.625 30.9375 91.326 30.9375 97.125C30.9375 102.924 35.704 107.625 41.5839 107.625H55.7286C61.6084 107.625 66.375 102.924 66.375 97.125C66.375 91.326 61.6084 86.625 55.7286 86.625Z" fill="#C140A3"/>
</g>
<g style="mix-blend-mode:soft-light" filter="url(#filter2_f_181_541)">
<path d="M137.124 86.625H122.938C117.07 86.625 112.312 91.3218 112.312 97.1157V97.1343C112.312 102.928 117.07 107.625 122.938 107.625H137.124C142.993 107.625 147.75 102.928 147.75 97.1343V97.1157C147.75 91.3218 142.993 86.625 137.124 86.625Z" fill="#C140A3"/>
</g>
<path d="M136.049 108.938C136.399 108.937 136.742 109.04 137.035 109.232C137.329 109.424 137.56 109.699 137.702 110.021C139.919 114.38 140.462 119.408 139.228 124.144C137.994 128.88 135.069 132.993 131.012 135.695C126.936 138.458 121.991 139.611 117.123 138.937C112.255 138.262 107.804 135.807 104.62 132.039C104.447 131.668 104.395 131.253 104.472 130.851C104.549 130.449 104.75 130.082 105.047 129.802C105.344 129.523 105.721 129.345 106.124 129.295C106.528 129.245 106.937 129.325 107.292 129.524C109.903 132.63 113.558 134.66 117.56 135.228C121.563 135.795 125.633 134.86 128.994 132.6C134.261 129.059 138.855 121.397 134.376 111.511C134.217 111.057 134.231 110.56 134.416 110.117C134.6 109.673 134.943 109.315 135.376 109.112C135.586 109.008 135.815 108.949 136.049 108.938Z" fill="black"/>
<path d="M146.437 66.9895C146.437 57.5374 138.798 49.875 129.375 49.875C119.952 49.875 112.312 57.5374 112.312 66.9895V72.1355C112.312 81.5876 119.952 89.25 129.375 89.25C138.798 89.25 146.437 81.5876 146.437 72.1355V66.9895Z" fill="black"/>
<path d="M123.844 62.388C125.502 62.388 126.847 61.0435 126.847 59.3849C126.847 57.7264 125.502 56.3818 123.844 56.3818C122.185 56.3818 120.841 57.7264 120.841 59.3849C120.841 61.0435 122.185 62.388 123.844 62.388Z" fill="white"/>
<path opacity="0.1" d="M129.407 73.9574C133.266 73.9574 136.395 70.8288 136.395 66.9694C136.395 63.1101 133.266 59.9814 129.407 59.9814C125.548 59.9814 122.419 63.1101 122.419 66.9694C122.419 70.8288 125.548 73.9574 129.407 73.9574Z" fill="white"/>
<path d="M66.375 66.9895C66.375 57.5374 58.7358 49.875 49.3125 49.875C39.8891 49.875 32.25 57.5374 32.25 66.9895V72.1355C32.25 81.5876 39.8891 89.25 49.3125 89.25C58.7358 89.25 66.375 81.5876 66.375 72.1355V66.9895Z" fill="black"/>
<path d="M43.7812 62.388C45.4397 62.388 46.7843 61.0435 46.7843 59.3849C46.7843 57.7264 45.4397 56.3818 43.7812 56.3818C42.1226 56.3818 40.7781 57.7264 40.7781 59.3849C40.7781 61.0435 42.1226 62.388 43.7812 62.388Z" fill="white"/>
<path opacity="0.1" d="M49.3444 73.9574C53.2038 73.9574 56.3324 70.8288 56.3324 66.9694C56.3324 63.1101 53.2038 59.9814 49.3444 59.9814C45.4851 59.9814 42.3564 63.1101 42.3564 66.9694C42.3564 70.8288 45.4851 73.9574 49.3444 73.9574Z" fill="white"/>
<path d="M142.643 41.1621H117.864C108.918 41.1621 101.667 48.3847 101.667 57.2941V81.9734C101.667 90.8829 108.918 98.1054 117.864 98.1054H142.643C151.589 98.1054 158.841 90.8829 158.841 81.9734V57.2941C158.841 48.3847 151.589 41.1621 142.643 41.1621Z" fill="url(#paint0_linear_181_541)"/>
<path d="M59.913 41.1621H35.1337C26.1881 41.1621 18.9363 48.3847 18.9363 57.2941V81.9734C18.9363 90.8829 26.1881 98.1054 35.1337 98.1054H59.913C68.8586 98.1054 76.1104 90.8829 76.1104 81.9734V57.2941C76.1104 48.3847 68.8586 41.1621 59.913 41.1621Z" fill="url(#paint1_linear_181_541)"/>
<path d="M59.6075 101.301H34.8281C29.7097 101.275 24.8081 99.2391 21.1888 95.6344C17.5695 92.0297 15.5249 87.1479 15.4995 82.0501V57.3131C15.5299 52.2169 17.5761 47.338 21.1944 43.7344C24.8126 40.1307 29.7113 38.0928 34.8281 38.0625H59.6075C64.7426 38.0879 69.6587 40.1375 73.2808 43.763C76.9028 47.3885 78.9362 52.2949 78.9361 57.4094V81.9731C78.9463 84.5076 78.4538 87.0192 77.487 89.3637C76.5202 91.7081 75.0981 93.8394 73.3023 95.6352C71.5064 97.4309 69.3722 98.8558 67.0221 99.828C64.672 100.8 62.1522 101.301 59.6075 101.301ZM34.8281 44.3574C33.1174 44.3549 31.4228 44.688 29.8413 45.3377C28.2597 45.9874 26.8222 46.941 25.6106 48.1441C24.3991 49.3471 23.4374 50.7761 22.7804 52.3493C22.1233 53.9225 21.7839 55.6092 21.7813 57.3131V81.9731C21.7864 85.4025 23.1565 88.69 25.5913 91.1149C28.0261 93.5399 31.3269 94.9044 34.7702 94.9095H59.6075C63.0507 94.9044 66.3515 93.5399 68.7863 91.1149C71.2211 88.69 72.5912 85.4025 72.5963 81.9731V57.3131C72.5912 53.8819 71.2217 50.5925 68.7875 48.1645C66.3533 45.7365 63.0525 44.3676 59.6075 44.3574H34.8281Z" fill="black"/>
<path d="M142.643 101.301H117.883C112.765 101.275 107.863 99.2391 104.244 95.6344C100.625 92.0297 98.5801 87.1479 98.5547 82.0501V57.3131C98.5851 52.2169 100.631 47.338 104.25 43.7344C107.868 40.1307 112.766 38.0928 117.883 38.0625H142.643C147.777 38.093 152.69 40.1442 156.311 43.7685C159.932 47.3929 161.967 52.2964 161.972 57.4094V81.9731C161.967 87.0843 159.931 91.9857 156.31 95.6071C152.688 99.2284 147.775 101.275 142.643 101.301ZM117.883 44.3574C114.437 44.3625 111.133 45.7298 108.698 48.1589C106.262 50.588 104.894 53.8804 104.894 57.3131V81.9731C104.9 85.4025 106.27 88.69 108.704 91.1149C111.139 93.5399 114.44 94.9044 117.883 94.9095H142.643C146.087 94.9044 149.387 93.5399 151.822 91.1149C154.257 88.69 155.627 85.4025 155.632 81.9731V57.3131C155.632 53.8804 154.264 50.588 151.829 48.1589C149.394 45.7298 146.09 44.3625 142.643 44.3574H117.883Z" fill="black"/>
<path d="M101.666 62.6074H75.8047V69.0179H101.666V62.6074Z" fill="black"/>
<path d="M175.811 72.6751H158.841C158.03 72.6125 157.273 72.2476 156.721 71.6535C156.169 71.0593 155.862 70.2795 155.862 69.4699C155.862 68.6603 156.169 67.8805 156.721 67.2863C157.273 66.6921 158.03 66.3273 158.841 66.2646H175.811C176.622 66.3273 177.378 66.6921 177.931 67.2863C178.483 67.8805 178.789 68.6603 178.789 69.4699C178.789 70.2795 178.483 71.0593 177.931 71.6535C177.378 72.2476 176.622 72.6125 175.811 72.6751Z" fill="black"/>
<path d="M18.6307 72.6751H3.72829C2.91784 72.6125 2.16095 72.2476 1.60882 71.6535C1.0567 71.0593 0.75 70.2795 0.75 69.4699C0.75 68.6603 1.0567 67.8805 1.60882 67.2863C2.16095 66.6921 2.91784 66.3273 3.72829 66.2646H18.6307C19.4411 66.3273 20.198 66.6921 20.7501 67.2863C21.3023 67.8805 21.609 68.6603 21.609 69.4699C21.609 70.2795 21.3023 71.0593 20.7501 71.6535C20.198 72.2476 19.4411 72.6125 18.6307 72.6751Z" fill="black"/>
<defs>
<filter id="filter0_i_181_541" x="6" y="0" width="168" height="168" filterUnits="userSpaceOnUse" color-interpolation-filters="sRGB">
<feFlood flood-opacity="0" result="BackgroundImageFix"/>
<feBlend mode="normal" in="SourceGraphic" in2="BackgroundImageFix" result="shape"/>
<feColorMatrix in="SourceAlpha" type="matrix" values="0 0 0 0 0 0 0 0 0 0 0 0 0 0 0 0 0 0 127 0" result="hardAlpha"/>
<feOffset dx="-6" dy="-6"/>
<feComposite in2="hardAlpha" operator="arithmetic" k2="-1" k3="1"/>
<feColorMatrix type="matrix" values="0 0 0 0 0 0 0 0 0 0 0 0 0 0 0 0 0 0 0.04 0"/>
<feBlend mode="normal" in2="shape" result="effect1_innerShadow_181_541"/>
</filter>
<filter id="filter1_f_181_541" x="20.9375" y="76.625" width="55.4375" height="41" filterUnits="userSpaceOnUse" color-interpolation-filters="sRGB">
<feFlood flood-opacity="0" result="BackgroundImageFix"/>
<feBlend mode="normal" in="SourceGraphic" in2="BackgroundImageFix" result="shape"/>
<feGaussianBlur stdDeviation="5" result="effect1_foregroundBlur_181_541"/>
</filter>
<filter id="filter2_f_181_541" x="102.312" y="76.625" width="55.4375" height="41" filterUnits="userSpaceOnUse" color-interpolation-filters="sRGB">
<feFlood flood-opacity="0" result="BackgroundImageFix"/>
<feBlend mode="normal" in="SourceGraphic" in2="BackgroundImageFix" result="shape"/>
<feGaussianBlur stdDeviation="5" result="effect1_foregroundBlur_181_541"/>
</filter>
<linearGradient id="paint0_linear_181_541" x1="3093.59" y1="2098.52" x2="4784.8" y2="2098.52" gradientUnits="userSpaceOnUse">
<stop stop-color="white" stop-opacity="0.3"/>
<stop offset="0.5" stop-color="#969696" stop-opacity="0.2"/>
<stop offset="1" stop-color="white" stop-opacity="0.3"/>
</linearGradient>
<linearGradient id="paint1_linear_181_541" x1="3010.86" y1="2098.52" x2="4702.07" y2="2098.52" gradientUnits="userSpaceOnUse">
<stop stop-color="white" stop-opacity="0.3"/>
<stop offset="0.5" stop-color="#969696" stop-opacity="0.2"/>
<stop offset="1" stop-color="white" stop-opacity="0.3"/>
</linearGradient>
</defs>
</svg>
