<svg width="174" height="168" viewBox="0 0 174 168" fill="none" xmlns="http://www.w3.org/2000/svg">
<g filter="url(#filter0_i_181_1409)">
<path d="M171 39.6947V128.248C171.005 133.466 169.982 138.634 167.988 143.457C165.994 148.28 163.07 152.663 159.382 156.354C155.693 160.046 151.314 162.975 146.493 164.973C141.672 166.972 136.505 168 131.286 168H42.7332C32.2002 167.995 22.0998 163.81 14.65 156.364C7.20028 148.917 3.01022 138.819 3.00002 128.286V39.7332C2.99496 34.5156 4.0186 29.3481 6.01238 24.5265C8.00617 19.7048 10.931 15.3235 14.6195 11.6331C18.3081 7.94279 22.688 5.01586 27.5087 3.01974C32.3294 1.02361 37.4963 -0.00252816 42.714 4.67744e-06H131.267C136.482 -0.00252396 141.647 1.0222 146.466 3.01568C151.285 5.00916 155.665 7.93235 159.354 11.6184C163.044 15.3043 165.971 19.681 167.97 24.4983C169.968 29.3157 170.997 34.4794 171 39.6947Z" fill="#FCBC34"/>
</g>
<g style="mix-blend-mode:soft-light" opacity="0.4">
<path d="M87.3981 65.4873L82.8164 89.5698L87.3981 93.2274V65.4873Z" fill="black"/>
</g>
<path d="M87.7117 132.562H86.7231C73.9875 132.276 59.4297 125.619 55.6109 111.369C55.5234 111.132 55.487 110.88 55.5041 110.629C55.5213 110.377 55.5915 110.132 55.7104 109.909C55.8293 109.685 55.9942 109.489 56.1946 109.332C56.3951 109.175 56.6265 109.061 56.8743 108.997C57.1221 108.933 57.3807 108.92 57.6336 108.96C57.8865 109 58.1282 109.092 58.3431 109.229C58.5581 109.366 58.7416 109.546 58.882 109.757C59.0223 109.968 59.1164 110.205 59.1583 110.454C62.5118 122.872 75.4607 128.69 86.8006 128.938C97.6172 129.148 111.787 123.897 116.285 109.819C116.52 109.486 116.858 109.236 117.248 109.105C117.638 108.974 118.06 108.969 118.453 109.09C118.847 109.212 119.19 109.453 119.435 109.779C119.679 110.106 119.812 110.501 119.812 110.906C115.684 123.782 103.142 132.562 87.7117 132.562Z" fill="black"/>
<path fill-rule="evenodd" clip-rule="evenodd" d="M15.6325 52.079C9.52 57.8885 12.7117 87.5362 25.4396 95.0111C29.6951 97.4898 46.0016 99.9104 53.236 97.1413C66.7763 91.9708 75.3648 73.0706 75.3648 64.0272C75.3648 57.3656 62.308 49.7746 51.5144 48.5352C40.9916 47.2959 21.184 46.7924 15.6325 52.079Z" fill="url(#paint0_linear_181_1409)"/>
<path fill-rule="evenodd" clip-rule="evenodd" d="M158.367 52.079C164.48 57.8885 161.307 87.5362 148.56 95.0111C144.324 97.4898 127.998 99.9104 120.764 97.1413C107.223 91.9708 98.635 73.1674 98.635 64.0272C98.635 57.3656 111.692 49.7746 122.485 48.5352C132.95 47.2959 152.816 46.7924 158.367 52.079Z" fill="url(#paint1_linear_181_1409)"/>
<path d="M173.223 45.0684C173.195 44.9071 173.119 44.758 173.005 44.6405C172.891 44.5231 172.745 44.4427 172.585 44.41C161.926 42.5897 132.602 40.5371 116.876 43.4805C112.178 44.4362 107.67 46.1567 103.529 48.5735L100.414 50.1614C96.2817 52.3121 91.6647 53.3593 87.0096 53.2017C82.3479 53.3626 77.7238 52.3153 73.5853 50.1614L70.471 48.5735C66.3316 46.1535 61.8223 44.4328 57.1241 43.4805C41.4173 40.5951 12.0928 42.5897 1.41524 44.41C1.25493 44.4382 1.10802 44.5176 0.996459 44.6363C0.884899 44.7549 0.81467 44.9065 0.796258 45.0684C0.234581 49.1157 0.234581 53.2212 0.796258 57.2684C0.824439 57.4161 0.89394 57.5527 0.996672 57.6624C1.0994 57.7721 1.23114 57.8504 1.37656 57.888C1.37656 57.888 5.24523 58.9725 6.63795 69.8169C7.72118 78.3955 12.1508 98.7287 29.85 101.963C34.6173 102.774 39.4444 103.182 44.2801 103.183C46.4138 103.208 48.5467 103.086 50.6634 102.815C70.3162 99.9487 76.4094 82.3073 79.3496 73.7673C79.7365 72.6441 80.0653 71.6953 80.3748 70.94C82.3091 66.2731 83.8372 65.7696 87.0096 65.7696C89.5048 65.7696 91.71 66.1569 93.6443 70.94C93.9345 71.6953 94.2826 72.6635 94.6695 73.7673C97.5904 82.2492 103.703 99.8906 123.336 102.815C130.274 103.468 137.269 103.182 144.13 101.963C161.849 98.7287 166.298 78.3955 167.342 69.8169C168.696 58.9725 172.546 57.9074 172.565 57.888C172.718 57.857 172.858 57.7816 172.968 57.6714C173.078 57.5613 173.153 57.4211 173.184 57.2684C173.759 53.223 173.772 49.1174 173.223 45.0684ZM160.263 69.4489C159.257 78.26 155.466 90.0532 148.173 94.3329C144.13 96.7148 128.153 99.1354 121.093 96.4243C107.63 91.2926 99.4086 72.5473 99.4086 64.0267C99.4086 58.2172 111.324 50.6068 122.621 49.29C127.334 48.751 132.074 48.4794 136.819 48.4767C145.755 48.4767 154.595 49.5224 157.864 52.6401C160.205 54.8865 161.172 61.6448 160.263 69.4489ZM74.5911 64.0267C74.5911 72.5473 66.3895 91.2926 52.9653 96.4243C45.8469 99.1354 29.8693 96.7148 25.8846 94.3329C18.5921 90.0532 14.8202 78.26 13.795 69.4489C12.8858 61.7029 13.795 54.8865 16.2322 52.6401C19.5013 49.5224 28.3605 48.4767 37.2778 48.4767C42.022 48.4786 46.7623 48.7502 51.4758 49.29C62.695 50.6068 74.5911 58.1785 74.5911 64.0267Z" fill="black"/>
<defs>
<filter id="filter0_i_181_1409" x="3" y="0" width="168" height="168" filterUnits="userSpaceOnUse" color-interpolation-filters="sRGB">
<feFlood flood-opacity="0" result="BackgroundImageFix"/>
<feBlend mode="normal" in="SourceGraphic" in2="BackgroundImageFix" result="shape"/>
<feColorMatrix in="SourceAlpha" type="matrix" values="0 0 0 0 0 0 0 0 0 0 0 0 0 0 0 0 0 0 127 0" result="hardAlpha"/>
<feOffset dx="-6" dy="-6"/>
<feComposite in2="hardAlpha" operator="arithmetic" k2="-1" k3="1"/>
<feColorMatrix type="matrix" values="0 0 0 0 0 0 0 0 0 0 0 0 0 0 0 0 0 0 0.04 0"/>
<feBlend mode="normal" in2="shape" result="effect1_innerShadow_181_1409"/>
</filter>
<linearGradient id="paint0_linear_181_1409" x1="43.9898" y1="98.3806" x2="43.9898" y2="47.7219" gradientUnits="userSpaceOnUse">
<stop offset="0.317708" stop-color="#121212"/>
<stop offset="1" stop-color="#474747"/>
</linearGradient>
<linearGradient id="paint1_linear_181_1409" x1="130.005" y1="47.7178" x2="130.005" y2="98.3737" gradientUnits="userSpaceOnUse">
<stop stop-color="#474747"/>
<stop offset="0.682292" stop-color="#121212"/>
</linearGradient>
</defs>
</svg>
