<svg width="168" height="168" viewBox="0 0 168 168" fill="none" xmlns="http://www.w3.org/2000/svg">
<g filter="url(#filter0_i_181_469)">
<path d="M168 39.6947V128.248C168.005 133.466 166.982 138.634 164.988 143.457C162.994 148.28 160.07 152.663 156.382 156.354C152.693 160.046 148.314 162.975 143.493 164.973C138.672 166.972 133.505 168 128.286 168H39.7332C29.2002 167.995 19.0998 163.81 11.65 156.364C4.20028 148.917 0.0102189 138.819 1.8678e-05 128.286V39.7332C-0.0050427 34.5156 1.0186 29.3481 3.01238 24.5265C5.00617 19.7048 7.93098 15.3235 11.6195 11.6331C15.3081 7.94279 19.688 5.01586 24.5087 3.01974C29.3294 1.02361 34.4963 -0.00252816 39.714 4.67744e-06H128.267C133.482 -0.00252396 138.647 1.0222 143.466 3.01568C148.285 5.00916 152.665 7.93235 156.354 11.6184C160.044 15.3043 162.971 19.681 164.97 24.4983C166.968 29.3157 167.997 34.4794 168 39.6947Z" fill="#FCBC34"/>
</g>
<g style="mix-blend-mode:soft-light" opacity="0.4">
<path d="M84.3981 65.4873L79.8164 89.5698L84.3981 93.2274V65.4873Z" fill="black"/>
</g>
<path fill-rule="evenodd" clip-rule="evenodd" d="M39.4131 141.81C39.4131 78.8096 131.288 78.8096 131.288 141.81H39.4131Z" fill="#2B1607"/>
<path fill-rule="evenodd" clip-rule="evenodd" d="M53.9675 108.592C69.5421 91.0235 99.8374 91.1602 116.968 108.592H53.9675Z" fill="white"/>
<path d="M40.7083 132.299H129.912C130.332 135.34 130.524 138.412 130.484 141.486H39.927C39.9179 138.404 40.1795 135.328 40.7083 132.299Z" fill="white"/>
<path d="M131.21 143.062H39.4133C39.055 143.062 38.7115 142.92 38.4581 142.666C38.2048 142.412 38.0625 142.068 38.0625 141.71C38.0625 108.428 62.5478 93.1875 85.3209 93.1875C108.094 93.1875 132.56 108.428 132.56 141.653C132.571 141.836 132.543 142.019 132.48 142.191C132.417 142.363 132.318 142.52 132.192 142.652C132.065 142.785 131.912 142.889 131.743 142.96C131.574 143.03 131.393 143.065 131.21 143.062ZM40.7831 140.357H129.764C129.478 126.793 124.684 115.42 115.875 107.38C107.445 99.8807 96.5208 95.8042 85.2448 95.9499C64.165 95.9689 41.449 109.876 40.7831 140.357Z" fill="black"/>
<g clip-path="url(#clip0_181_469)">
<path d="M140.437 66.9895C140.437 57.5374 132.798 49.875 123.375 49.875C113.952 49.875 106.312 57.5374 106.312 66.9895V72.1355C106.312 81.5876 113.952 89.25 123.375 89.25C132.798 89.25 140.437 81.5876 140.437 72.1355V66.9895Z" fill="black"/>
<path d="M117.844 62.388C119.502 62.388 120.847 61.0435 120.847 59.3849C120.847 57.7264 119.502 56.3818 117.844 56.3818C116.185 56.3818 114.841 57.7264 114.841 59.3849C114.841 61.0435 116.185 62.388 117.844 62.388Z" fill="white"/>
<path opacity="0.1" d="M123.407 73.9574C127.266 73.9574 130.395 70.8288 130.395 66.9694C130.395 63.1101 127.266 59.9814 123.407 59.9814C119.548 59.9814 116.419 63.1101 116.419 66.9694C116.419 70.8288 119.548 73.9574 123.407 73.9574Z" fill="white"/>
<path d="M60.375 66.9895C60.375 57.5374 52.7358 49.875 43.3125 49.875C33.8891 49.875 26.25 57.5374 26.25 66.9895V72.1355C26.25 81.5876 33.8891 89.25 43.3125 89.25C52.7358 89.25 60.375 81.5876 60.375 72.1355V66.9895Z" fill="black"/>
<path d="M37.7812 62.388C39.4397 62.388 40.7843 61.0435 40.7843 59.3849C40.7843 57.7264 39.4397 56.3818 37.7812 56.3818C36.1226 56.3818 34.7781 57.7264 34.7781 59.3849C34.7781 61.0435 36.1226 62.388 37.7812 62.388Z" fill="white"/>
<path opacity="0.1" d="M43.3444 73.9574C47.2038 73.9574 50.3324 70.8288 50.3324 66.9694C50.3324 63.1101 47.2038 59.9814 43.3444 59.9814C39.4851 59.9814 36.3564 63.1101 36.3564 66.9694C36.3564 70.8288 39.4851 73.9574 43.3444 73.9574Z" fill="white"/>
</g>
<defs>
<filter id="filter0_i_181_469" x="0" y="0" width="168" height="168" filterUnits="userSpaceOnUse" color-interpolation-filters="sRGB">
<feFlood flood-opacity="0" result="BackgroundImageFix"/>
<feBlend mode="normal" in="SourceGraphic" in2="BackgroundImageFix" result="shape"/>
<feColorMatrix in="SourceAlpha" type="matrix" values="0 0 0 0 0 0 0 0 0 0 0 0 0 0 0 0 0 0 127 0" result="hardAlpha"/>
<feOffset dx="-6" dy="-6"/>
<feComposite in2="hardAlpha" operator="arithmetic" k2="-1" k3="1"/>
<feColorMatrix type="matrix" values="0 0 0 0 0 0 0 0 0 0 0 0 0 0 0 0 0 0 0.04 0"/>
<feBlend mode="normal" in2="shape" result="effect1_innerShadow_181_469"/>
</filter>
<clipPath id="clip0_181_469">
<rect width="114.791" height="39.329" fill="white" transform="translate(26.25 49.875)"/>
</clipPath>
</defs>
</svg>
